<svg xmlns="http://www.w3.org/2000/svg" width="62" height="52">
  <defs>
     <style><![CDATA[
         .warning { display: none; }
         .warning:target { display: inline; }
     ]]></style>
  </defs>
  <g class="warning" id="w0">
    <path d="m2.08791,8.81967l7.57237,0l2.33991,-7.19372l2.33993,7.19372l7.57236,0l-6.12615,4.44591l2.34004,7.19373l-6.12617,-4.44603l-6.12616,4.44603l2.34004,-7.19373l-6.12616,-4.44591l0,0z" stroke-width="NaN" stroke="#e6db8a" fill="#ffffff"/>
    <path d="m2.08791,28.15304l7.57237,0l2.33991,-7.19372l2.33993,7.19372l7.57236,0l-6.12616,4.4459l2.34004,7.19373l-6.12617,-4.44604l-6.12616,4.44604l2.34004,-7.19373l-6.12616,-4.4459l0,0z" stroke-width="NaN" stroke="#e6db8a" fill="#ffffff"/>
    <path d="m2.08791,48.48639l7.57237,0l2.33991,-7.19372l2.33993,7.19372l7.57236,0l-6.12616,4.4459l2.34004,7.19373l-6.12617,-4.44604l-6.12616,4.44604l2.34004,-7.19373l-6.12616,-4.4459l0,0z" stroke-width="NaN" stroke="#e6db8a" fill="#ffffff"/>
    <path d="m2.08791,68.81975l7.57237,0l2.33991,-7.19373l2.33993,7.19373l7.57236,0l-6.12616,4.4459l2.34004,7.19373l-6.12617,-4.44604l-6.12616,4.44604l2.34004,-7.19373l-6.12616,-4.4459l0,0z" stroke-width="NaN" stroke="#e6db8a" fill="#ffffff"/>
    <path d="m2.08791,89.15311l7.57237,0l2.33991,-7.19372l2.33993,7.19372l7.57236,0l-6.12616,4.4459l2.34004,7.19373l-6.12617,-4.44604l-6.12616,4.44604l2.34004,-7.19373l-6.12616,-4.4459l0,0z" stroke-width="NaN" stroke="#e6db8a" fill="#ffffff"/>
  </g>
  <g class="warning" id="w1">
    <path d="m2.08791,8.81967l7.57237,0l2.33991,-7.19372l2.33993,7.19372l7.57236,0l-6.12615,4.44591l2.34004,7.19373l-6.12617,-4.44603l-6.12616,4.44603l2.34004,-7.19373l-6.12616,-4.44591l0,0z" stroke-width="NaN" stroke="#e6db8a" fill="#ffffff"/>
    <path d="m2.08791,28.15304l7.57237,0l2.33991,-7.19372l2.33993,7.19372l7.57236,0l-6.12616,4.4459l2.34004,7.19373l-6.12617,-4.44604l-6.12616,4.44604l2.34004,-7.19373l-6.12616,-4.4459l0,0z" stroke-width="NaN" stroke="#e6db8a" fill="#ffffff"/>
    <path d="m2.08791,48.48639l7.57237,0l2.33991,-7.19372l2.33993,7.19372l7.57236,0l-6.12616,4.4459l2.34004,7.19373l-6.12617,-4.44604l-6.12616,4.44604l2.34004,-7.19373l-6.12616,-4.4459l0,0z" stroke-width="NaN" stroke="#e6db8a" fill="#ffffff"/>
    <path d="m2.08791,68.81975l7.57237,0l2.33991,-7.19373l2.33993,7.19373l7.57236,0l-6.12616,4.4459l2.34004,7.19373l-6.12617,-4.44604l-6.12616,4.44604l2.34004,-7.19373l-6.12616,-4.4459l0,0z" stroke-width="NaN" stroke="#e6db8a" fill="#ffffff"/>
    <path d="m2.08791,89.15311l7.57237,0l2.33991,-7.19372l2.33993,7.19372l7.57236,0l-6.12616,4.4459l2.34004,7.19373l-6.12617,-4.44604l-6.12616,4.44604l2.34004,-7.19373l-6.12616,-4.4459l0,0z" stroke-width="NaN" stroke="#baa400" fill="#f5d800"/>
  </g>
  <g class="warning" id="w2">
    <path d="m2.08791,8.81967l7.57237,0l2.33991,-7.19372l2.33993,7.19372l7.57236,0l-6.12615,4.44591l2.34004,7.19373l-6.12617,-4.44603l-6.12616,4.44603l2.34004,-7.19373l-6.12616,-4.44591l0,0z" stroke-width="NaN" stroke="#e6db8a" fill="#ffffff"/>
    <path d="m2.08791,28.15304l7.57237,0l2.33991,-7.19372l2.33993,7.19372l7.57236,0l-6.12616,4.4459l2.34004,7.19373l-6.12617,-4.44604l-6.12616,4.44604l2.34004,-7.19373l-6.12616,-4.4459l0,0z" stroke-width="NaN" stroke="#e6db8a" fill="#ffffff"/>
    <path d="m2.08791,48.48639l7.57237,0l2.33991,-7.19372l2.33993,7.19372l7.57236,0l-6.12616,4.4459l2.34004,7.19373l-6.12617,-4.44604l-6.12616,4.44604l2.34004,-7.19373l-6.12616,-4.4459l0,0z" stroke-width="NaN" stroke="#e6db8a" fill="#ffffff"/>
    <path d="m2.08791,68.81975l7.57237,0l2.33991,-7.19373l2.33993,7.19373l7.57236,0l-6.12616,4.4459l2.34004,7.19373l-6.12617,-4.44604l-6.12616,4.44604l2.34004,-7.19373l-6.12616,-4.4459l0,0z" stroke-width="NaN" stroke="#baa400" fill="#f5d800"/>
    <path d="m2.08791,89.15311l7.57237,0l2.33991,-7.19372l2.33993,7.19372l7.57236,0l-6.12616,4.4459l2.34004,7.19373l-6.12617,-4.44604l-6.12616,4.44604l2.34004,-7.19373l-6.12616,-4.4459l0,0z" stroke-width="NaN" stroke="#baa400" fill="#f5d800"/>
  </g>
  <g class="warning" id="w3">
    <path d="m2.08791,8.81967l7.57237,0l2.33991,-7.19372l2.33993,7.19372l7.57236,0l-6.12615,4.44591l2.34004,7.19373l-6.12617,-4.44603l-6.12616,4.44603l2.34004,-7.19373l-6.12616,-4.44591l0,0z" stroke-width="NaN" stroke="#e6db8a" fill="#ffffff"/>
    <path d="m2.08791,28.15304l7.57237,0l2.33991,-7.19372l2.33993,7.19372l7.57236,0l-6.12616,4.4459l2.34004,7.19373l-6.12617,-4.44604l-6.12616,4.44604l2.34004,-7.19373l-6.12616,-4.4459l0,0z" stroke-width="NaN" stroke="#e6db8a" fill="#ffffff"/>
    <path d="m2.08791,48.48639l7.57237,0l2.33991,-7.19372l2.33993,7.19372l7.57236,0l-6.12616,4.4459l2.34004,7.19373l-6.12617,-4.44604l-6.12616,4.44604l2.34004,-7.19373l-6.12616,-4.4459l0,0z" stroke-width="NaN" stroke="#baa400" fill="#f5d800"/>
    <path d="m2.08791,68.81975l7.57237,0l2.33991,-7.19373l2.33993,7.19373l7.57236,0l-6.12616,4.4459l2.34004,7.19373l-6.12617,-4.44604l-6.12616,4.44604l2.34004,-7.19373l-6.12616,-4.4459l0,0z" stroke-width="NaN" stroke="#baa400" fill="#f5d800"/>
    <path d="m2.08791,89.15311l7.57237,0l2.33991,-7.19372l2.33993,7.19372l7.57236,0l-6.12616,4.4459l2.34004,7.19373l-6.12617,-4.44604l-6.12616,4.44604l2.34004,-7.19373l-6.12616,-4.4459l0,0z" stroke-width="NaN" stroke="#baa400" fill="#f5d800"/>
  </g>
  <g class="warning" id="w4">
    <path d="m2.08791,8.81967l7.57237,0l2.33991,-7.19372l2.33993,7.19372l7.57236,0l-6.12615,4.44591l2.34004,7.19373l-6.12617,-4.44603l-6.12616,4.44603l2.34004,-7.19373l-6.12616,-4.44591l0,0z" stroke-width="NaN" stroke="#e6db8a" fill="#ffffff"/>
    <path d="m2.08791,28.15304l7.57237,0l2.33991,-7.19372l2.33993,7.19372l7.57236,0l-6.12616,4.4459l2.34004,7.19373l-6.12617,-4.44604l-6.12616,4.44604l2.34004,-7.19373l-6.12616,-4.4459l0,0z" stroke-width="NaN" stroke="#baa400" fill="#f5d800"/>
    <path d="m2.08791,48.48639l7.57237,0l2.33991,-7.19372l2.33993,7.19372l7.57236,0l-6.12616,4.4459l2.34004,7.19373l-6.12617,-4.44604l-6.12616,4.44604l2.34004,-7.19373l-6.12616,-4.4459l0,0z" stroke-width="NaN" stroke="#baa400" fill="#f5d800"/>
    <path d="m2.08791,68.81975l7.57237,0l2.33991,-7.19373l2.33993,7.19373l7.57236,0l-6.12616,4.4459l2.34004,7.19373l-6.12617,-4.44604l-6.12616,4.44604l2.34004,-7.19373l-6.12616,-4.4459l0,0z" stroke-width="NaN" stroke="#baa400" fill="#f5d800"/>
    <path d="m2.08791,89.15311l7.57237,0l2.33991,-7.19372l2.33993,7.19372l7.57236,0l-6.12616,4.4459l2.34004,7.19373l-6.12617,-4.44604l-6.12616,4.44604l2.34004,-7.19373l-6.12616,-4.4459l0,0z" stroke-width="NaN" stroke="#baa400" fill="#f5d800"/>
  </g>
  <g class="warning" id="w5">
    <path d="m2.08791,8.81967l7.57237,0l2.33991,-7.19372l2.33993,7.19372l7.57236,0l-6.12615,4.44591l2.34004,7.19373l-6.12617,-4.44603l-6.12616,4.44603l2.34004,-7.19373l-6.12616,-4.44591l0,0z" stroke-width="NaN" stroke="#baa400" fill="#f5d800"/>
    <path d="m2.08791,28.15304l7.57237,0l2.33991,-7.19372l2.33993,7.19372l7.57236,0l-6.12616,4.4459l2.34004,7.19373l-6.12617,-4.44604l-6.12616,4.44604l2.34004,-7.19373l-6.12616,-4.4459l0,0z" stroke-width="NaN" stroke="#baa400" fill="#f5d800"/>
    <path d="m2.08791,48.48639l7.57237,0l2.33991,-7.19372l2.33993,7.19372l7.57236,0l-6.12616,4.4459l2.34004,7.19373l-6.12617,-4.44604l-6.12616,4.44604l2.34004,-7.19373l-6.12616,-4.4459l0,0z" stroke-width="NaN" stroke="#baa400" fill="#f5d800"/>
    <path d="m2.08791,68.81975l7.57237,0l2.33991,-7.19373l2.33993,7.19373l7.57236,0l-6.12616,4.4459l2.34004,7.19373l-6.12617,-4.44604l-6.12616,4.44604l2.34004,-7.19373l-6.12616,-4.4459l0,0z" stroke-width="NaN" stroke="#baa400" fill="#f5d800"/>
    <path d="m2.08791,89.15311l7.57237,0l2.33991,-7.19372l2.33993,7.19372l7.57236,0l-6.12616,4.4459l2.34004,7.19373l-6.12617,-4.44604l-6.12616,4.44604l2.34004,-7.19373l-6.12616,-4.4459l0,0z" stroke-width="NaN" stroke="#baa400" fill="#f5d800"/>
  </g>
</svg>
